/* XPM */
static char *result[] = {
/* columns rows colors chars-per-pixel */
"72 72 8 1 ",
"  c black",
". c #464054",
"X c #75564A",
"o c #91695A",
"O c #A67D6C",
"+ c #AEAEAE",
"@ c gray85",
"# c None",
/* pixels */
"########################################################################",
"########################################################################",
"########################################################################",
"########################################################################",
"########################################################################",
"########################################################################",
"########################################################################",
"########################################################################",
"########################################################################",
"########################################################################",
"########################################################################",
"########################################################################",
"########################################################################",
"########################################################################",
"########################################################################",
"########################################################################",
"########################################################################",
"########################################################################",
"########################################################################",
"########################################################################",
"########################################################################",
"########################################################################",
"##########################      ########      ##########################",
"##########################      ########      ##########################",
"########################  OOOOOO        OOOOOO  ########################",
"########################  OOOOOO        OOOOOO  ########################",
"######################  OOOOOOOOOOOOOOOOOOOOOOOO  ######################",
"######################  OOOOOOOOOOOOOOOOOOOOOOOO  ######################",
"##############    ####  OOOOOOOOOOOOOOOOOOOOOOOO  ####    ##############",
"##############    ####  OOOOOOOOOOOOOOOOOOOOOOOO  ####    ##############",
"############  @@@@  ##  ooOOOOOOooooooooOOOOOOoo  ##  @@@@  ############",
"############  @@@@  ##  ooOOOOOOooooooooOOOOOOoo  ##  @@@@  ############",
"############  ++@@@@    oooooooooooooooooooooooo    @@@@++  ############",
"############  ++@@@@    oooooooooooooooooooooooo    @@@@++  ############",
"##############  @@@@@@  oooooooooooooooooooooooo  @@@@@@  ##############",
"##############  @@@@@@  oooooooooooooooooooooooo  @@@@@@  ##############",
"##############  @@@@@@  oooooooooooooooooooooooo  @@@@@@  ##############",
"##############  @@@@@@  oooooooooooooooooooooooo  @@@@@@  ##############",
"############  @@@@++    XXooooooXXXXXXXXooooooXX    ++@@@@  ############",
"############  @@@@++    XXooooooXXXXXXXXooooooXX    ++@@@@  ############",
"############  ++++  ##  XXXXXXXXXXXXXXXXXXXXXXXX  ##  ++++  ############",
"############  ++++  ##  XXXXXXXXXXXXXXXXXXXXXXXX  ##  ++++  ############",
"##############    ####  XXXXXXXXXXXXXXXXXXXXXXXX  ####    ##############",
"##############    ####  XXXXXXXXXXXXXXXXXXXXXXXX  ####    ##############",
"######################  ..XXXXXX........XXXXXX..  ######################",
"######################  ..XXXXXX........XXXXXX..  ######################",
"########################  ......        ......  ########################",
"########################  ......        ......  ########################",
"##########################      ########      ##########################",
"##########################      ########      ##########################",
"########################################################################",
"########################################################################",
"########################################################################",
"########################################################################",
"########################################################################",
"########################################################################",
"########################################################################",
"########################################################################",
"########################################################################",
"########################################################################",
"########################################################################",
"########################################################################",
"########################################################################",
"########################################################################",
"########################################################################",
"########################################################################",
"########################################################################",
"########################################################################",
"########################################################################",
"########################################################################",
"########################################################################",
"########################################################################"
};
