/* XPM */
static char *result[] = {
/* columns rows colors chars-per-pixel */
"72 72 12 1 ",
"  c gray16",
". c #6D5895",
"X c #8D6BCE",
"o c #9676D2",
"O c #998FA7",
"+ c #CBBDA5",
"@ c #AF98DD",
"# c #B197E4",
"$ c #D4BEFF",
"% c #F2EADD",
"& c #E3D4FF",
"* c None",
/* pixels */
"************************************************************************",
"************************************************************************",
"************************************************************************",
"************************************************************************",
"************************************************************************",
"************************************************************************",
"************************************************************************",
"************************************************************************",
"************************************************************************",
"************************************************************************",
"************************************************************************",
"************************************************************************",
"************************************************************************",
"************************************************************************",
"************************************************************************",
"************************************************************************",
"************************************************************************",
"************************************************************************",
"*********************************              *************************",
"*********************************              *************************",
"*****************************    $$$$$$$$XXXXXX  ***********************",
"*****************************    $$$$$$$$XXXXXX  ***********************",
"***************************  XXXX$$&&&&$$$$XXXX..  *********************",
"***************************  XXXX$$&&&&$$$$XXXX..  *********************",
"*************************  XXXX##&&&&&&&&$$XXXX....  *******************",
"*************************  XXXX##&&&&&&&&$$XXXX....  *******************",
"***********************  $$$$XX####&&&&&&XXXXXX....oo  *****************",
"***********************  $$$$XX####&&&&&&XXXXXX....oo  *****************",
"***********************  $$$$XXXX####XXXXXXXX......oo  *****************",
"***********************  $$$$XXXX####XXXXXXXX......oo  *****************",
"***********************  $$XXXXXXXXXXXXXXXX....@@@@oo  *****************",
"***********************  $$XXXXXXXXXXXXXXXX....@@@@oo  *****************",
"*************************  XXXXXXXXXXXXXX....@@@@@@$$  *****************",
"*************************  XXXXXXXXXXXXXX....@@@@@@$$  *****************",
"*************************  ....@@@@@@........@@@@@@$$  *****************",
"*************************  ....@@@@@@........@@@@@@$$  *****************",
"***************************  @@@@@@@@@@........@@@@$$  *****************",
"***************************  @@@@@@@@@@........@@@@$$  *****************",
"*****************************    @@@@@@..........oooo  *****************",
"*****************************    @@@@@@..........oooo  *****************",
"*************************    %%%%      oooooooooooo  *******************",
"*************************    %%%%      oooooooooooo  *******************",
"*********************    %%%%%%%%%%%%++            *********************",
"*********************    %%%%%%%%%%%%++            *********************",
"*******************  %%%%%%%%%%%%%%++OO  *******************************",
"*******************  %%%%%%%%%%%%%%++OO  *******************************",
"*******************  ++%%%%%%%%%%++++OO  *******************************",
"*******************  ++%%%%%%%%%%++++OO  *******************************",
"*******************  ++++++++++++++OO  *********************************",
"*******************  ++++++++++++++OO  *********************************",
"*********************    OOOOOOOOOO  ***********************************",
"*********************    OOOOOOOOOO  ***********************************",
"*************************          *************************************",
"*************************          *************************************",
"************************************************************************",
"************************************************************************",
"************************************************************************",
"************************************************************************",
"************************************************************************",
"************************************************************************",
"************************************************************************",
"************************************************************************",
"************************************************************************",
"************************************************************************",
"************************************************************************",
"************************************************************************",
"************************************************************************",
"************************************************************************",
"************************************************************************",
"************************************************************************",
"************************************************************************",
"************************************************************************"
};
