/* XPM */
static char *_80745fab4e84aa4fa37ab61b10d7f2elKR7c7fl3dB7g5ye[] = {
/* columns rows colors chars-per-pixel */
"72 72 2 1 ",
"  c None",
". c gray52",
/* pixels */
"                                                                        ",
"                                                                        ",
"                                                                        ",
"                                                                        ",
"                                                                        ",
"                                                                        ",
"                                                                        ",
"                                                                        ",
"                                                                        ",
"                                                                        ",
"                                                                        ",
"                                                                        ",
"                                                                        ",
"                                                                        ",
"                                                                        ",
"                                                                        ",
"                                                                        ",
"                                                                        ",
"                                                                        ",
"                                                                        ",
"                                                                        ",
"                                                                        ",
"                                                                        ",
"                                                                        ",
"                                                                        ",
"                                                                        ",
"                                                                        ",
"                                                                        ",
"                                                                        ",
"                                                                        ",
"                                                                        ",
"                                                                        ",
"                                                                        ",
"                                                                        ",
"                                                                        ",
"                                                                        ",
"                                                                        ",
"                                                                        ",
"                                                                        ",
"                                                                        ",
"                                                                        ",
"                                                                        ",
"                                                                        ",
"                                                                        ",
"                                                                        ",
"                                                                        ",
"                                                                        ",
"                                                                        ",
"                                                                        ",
"                                                                        ",
"                                                                        ",
"                                                                        ",
"                                                                        ",
"                                                                        ",
"                        ........................                        ",
"                        ........................                        ",
"                        ........................                        ",
"               ..........................................               ",
"               ..........................................               ",
"               ..........................................               ",
"            ................................................            ",
"            ................................................            ",
"            ................................................            ",
"               ..........................................               ",
"               ..........................................               ",
"               ..........................................               ",
"                        ........................                        ",
"                        ........................                        ",
"                        ........................                        ",
"                                                                        ",
"                                                                        ",
"                                                                        "
};
