/* XPM */
static char *bd367db647924fdcecf8070620c22d22M05elOlwyVCnkGI3[] = {
/* columns rows colors chars-per-pixel */
"72 72 8 1 ",
"  c None",
". c #213038",
"X c #437DA0",
"o c #9A2890",
"O c #4D92BC",
"+ c #D8B78F",
"@ c #FFD7A8",
"# c white",
/* pixels */
"                                                                        ",
"                                                                        ",
"                                                                        ",
"                                                                        ",
"                                                                        ",
"                                                                        ",
"                                                                        ",
"                                                                        ",
"                                                                        ",
"                                                                        ",
"                                                                        ",
"                                                                        ",
"                                                                        ",
"                   .................................                    ",
"                   .................................                    ",
"                   .................................                    ",
"                ......XXXXXXXXX...OOOOOOOOOOOOOOOOOO...                 ",
"                ......XXXXXXXXX...OOOOOOOOOOOOOOOOOO...                 ",
"                ......XXXXXXXXX...OOOOOOOOOOOOOOOOOO...                 ",
"             ...ooo...XXX###...###XXXOOOOOOOOOOOOOOOOOO...              ",
"             ...ooo...XXX###...###XXXOOOOOOOOOOOOOOOOOO...              ",
"             ...ooo...XXX###...###XXXOOOOOOOOOOOOOOOOOO...              ",
"             ...ooo...XXX###...###XXXOOO...OOOOOOOOO......              ",
"             ...ooo...XXX###...###XXXOOO...OOOOOOOOO......              ",
"             ...ooo...XXX###...###XXXOOO...OOOOOOOOO......              ",
"             .........XXX###...###XXXOOOOOOOOOOOOOOOOOO...              ",
"             .........XXX###...###XXXOOOOOOOOOOOOOOOOOO...              ",
"             .........XXX###...###XXXOOOOOOOOOOOOOOOOOO...              ",
"                ...ooo...XXXXXXXXXXXXOOOOOOOOOOOOOOOOOO...              ",
"                ...ooo...XXXXXXXXXXXXOOOOOOOOOOOOOOOOOO...              ",
"                ...ooo...XXXXXXXXXXXXOOOOOOOOOOOOOOOOOO...              ",
"                ...ooo...XXXXXXXXXXXXOOOOOOOOOOOOOOOOOO...              ",
"                ...ooo...XXXXXXXXXXXXOOOOOOOOOOOOOOOOOO...              ",
"                ...ooo...XXXXXXXXXXXXOOOOOOOOOOOOOOOOOO...              ",
"                .........XXXXXXXXXXXXXXXOOO...............              ",
"                .........XXXXXXXXXXXXXXXOOO...............              ",
"                .........XXXXXXXXXXXXXXXOOO...............              ",
"                      ......XXXXXXOOOOOOOOOOOO...                       ",
"                      ......XXXXXXOOOOOOOOOOOO...                       ",
"                      ......XXXXXXOOOOOOOOOOOO...                       ",
"                         ...XXX+++@@@@@@@@@@@@...                       ",
"                         ...XXX+++@@@@@@@@@@@@...                       ",
"                         ...XXX+++@@@@@@@@@@@@...                       ",
"                   .........XXX+++@@@@@@@@@@@@...                       ",
"                   .........XXX+++@@@@@@@@@@@@...                       ",
"                   .........XXX+++@@@@@@@@@@@@...                       ",
"                   ...OOOOOOXXX+++@@@@@@@@@@@@...                       ",
"                   ...OOOOOOXXX+++@@@@@@@@@@@@...                       ",
"                   ...OOOOOOXXX+++@@@@@@@@@@@@...                       ",
"                   ......XXXXXXXXXOOO++++++OOO...                       ",
"                   ......XXXXXXXXXOOO++++++OOO...                       ",
"                   ......XXXXXXXXXOOO++++++OOO...                       ",
"                      ......XXXOOOOOOOOOOOOOOO...                       ",
"                      ......XXXOOOOOOOOOOOOOOO...                       ",
"                      ......XXXOOOOOOOOOOOOOOO...                       ",
"                         ...XXXOOO......XXXOOO...                       ",
"                         ...XXXOOO......XXXOOO...                       ",
"                         ...XXXOOO......XXXOOO...                       ",
"                         ...XXX...   ...XXX...                          ",
"                         ...XXX...   ...XXX...                          ",
"                         ...XXX...   ...XXX...                          ",
"                         ......      ......                             ",
"                         ......      ......                             ",
"                         ......      ......                             ",
"                                                                        ",
"                                                                        ",
"                                                                        ",
"                                                                        ",
"                                                                        ",
"                                                                        ",
"                                                                        ",
"                                                                        "
};
