/* XPM */
static char *result[] = {
/* columns rows colors chars-per-pixel */
"72 72 5 1 ",
"  c black",
". c #664E48",
"X c #7C625C",
"o c #91736C",
"O c #B9978F",
/* pixels */
"                                                                        ",
"                                                                        ",
"                                                                        ",
".XOOOOOOOOOOOOOOOOOOO   .XOOOOOOOOOOOOOOOOOOOOOO   .XOOOOOOOOOOOOOOOOOOO",
".XooooooooooooooooooO   .XoooooooooooooooooooooO   .XooooooooooooooooooO",
".XooooooooooooooooooO   .XoooooooooooooooooooooO   .XooooooooooooooooooO",
".XooooooooooooooooooO   .XoooooooooooooooooooooO   .XooooooooooooooooooO",
".XooooooooooooooooooO   .XoooooooooooooooooooooO   .XooooooooooooooooooO",
".XooooooooooooooooooO   .XoooooooooooooooooooooO   .XooooooooooooooooooO",
".XooooooooooooooooooO   .XoooooooooooooooooooooO   .XooooooooooooooooooO",
".XooooooooooooooooooO   .XoooooooooooooooooooooO   .XooooooooooooooooooO",
".XooooooooooooooooooO   .XoooooooooooooooooooooO   .XooooooooooooooooooO",
".XooooooooooooooooooO   .XoooooooooooooooooooooO   .XooooooooooooooooooO",
".XooooooooooooooooooO   .XoooooooooooooooooooooO   .XooooooooooooooooooO",
".XooooooooooooooooooO   .XoooooooooooooooooooooO   .XooooooooooooooooooO",
".XooooooooooooooooooO   .XoooooooooooooooooooooO   .XooooooooooooooooooO",
".XooooooooooooooooooO   .XoooooooooooooooooooooO   .XooooooooooooooooooO",
".XooooooooooooooooooO   .XoooooooooooooooooooooO   .XooooooooooooooooooO",
".XooooooooooooooooooO   .XoooooooooooooooooooooO   .XooooooooooooooooooO",
".XooooooooooooooooooO   .XoooooooooooooooooooooO   .XooooooooooooooooooO",
".XooooooooooooooooooO   .XoooooooooooooooooooooO   .XooooooooooooooooooO",
".XXoooooooooooooooooO   .XXooooooooooooooooooooO   .XXoooooooooooooooooO",
"..XXXXXXXXXXXXXXXXXXO   ..XXXXXXXXXXXXXXXXXXXXXX   ..XXXXXXXXXXXXXXXXXXX",
".....................   ........................   .....................",
"                                                                        ",
"                                                                        ",
"                                                                        ",
".XOOOOOOOOOOOOOOOOOOOOOOOOOOOOOOOO    .XOOOOOOOOOOOOOOOOOOOOOOOOOOOOOOOO",
".XoooooooooooooooooooooooooooooooO    .XoooooooooooooooooooooooooooooooO",
".XoooooooooooooooooooooooooooooooO    .XoooooooooooooooooooooooooooooooO",
".XoooooooooooooooooooooooooooooooO    .XoooooooooooooooooooooooooooooooO",
".XoooooooooooooooooooooooooooooooO    .XoooooooooooooooooooooooooooooooO",
".XoooooooooooooooooooooooooooooooO    .XoooooooooooooooooooooooooooooooO",
".XoooooooooooooooooooooooooooooooO    .XoooooooooooooooooooooooooooooooO",
".XoooooooooooooooooooooooooooooooO    .XoooooooooooooooooooooooooooooooO",
".XoooooooooooooooooooooooooooooooO    .XoooooooooooooooooooooooooooooooO",
".XoooooooooooooooooooooooooooooooO    .XoooooooooooooooooooooooooooooooO",
".XoooooooooooooooooooooooooooooooO    .XoooooooooooooooooooooooooooooooO",
".XoooooooooooooooooooooooooooooooO    .XoooooooooooooooooooooooooooooooO",
".XoooooooooooooooooooooooooooooooO    .XoooooooooooooooooooooooooooooooO",
".XoooooooooooooooooooooooooooooooO    .XoooooooooooooooooooooooooooooooO",
".XoooooooooooooooooooooooooooooooO    .XoooooooooooooooooooooooooooooooO",
".XoooooooooooooooooooooooooooooooO    .XoooooooooooooooooooooooooooooooO",
".XoooooooooooooooooooooooooooooooO    .XoooooooooooooooooooooooooooooooO",
".XoooooooooooooooooooooooooooooooO    .XoooooooooooooooooooooooooooooooO",
".XXooooooooooooooooooooooooooooooO    .XXooooooooooooooooooooooooooooooO",
"..XXXXXXXXXXXXXXXXXXXXXXXXXXXXXXXX    ..XXXXXXXXXXXXXXXXXXXXXXXXXXXXXXXX",
"..................................    ..................................",
"                                                                        ",
"                                                                        ",
"                                                                        ",
".XOOOOOOOOOOOOOOOOOOO   .XOOOOOOOOOOOOOOOOOOOOOO   .XOOOOOOOOOOOOOOOOOOO",
".XooooooooooooooooooO   .XoooooooooooooooooooooO   .XooooooooooooooooooO",
".XooooooooooooooooooO   .XoooooooooooooooooooooO   .XooooooooooooooooooO",
".XooooooooooooooooooO   .XoooooooooooooooooooooO   .XooooooooooooooooooO",
".XooooooooooooooooooO   .XoooooooooooooooooooooO   .XooooooooooooooooooO",
".XooooooooooooooooooO   .XoooooooooooooooooooooO   .XooooooooooooooooooO",
".XooooooooooooooooooO   .XoooooooooooooooooooooO   .XooooooooooooooooooO",
".XooooooooooooooooooO   .XoooooooooooooooooooooO   .XooooooooooooooooooO",
".XooooooooooooooooooO   .XoooooooooooooooooooooO   .XooooooooooooooooooO",
".XooooooooooooooooooO   .XoooooooooooooooooooooO   .XooooooooooooooooooO",
".XooooooooooooooooooO   .XoooooooooooooooooooooO   .XooooooooooooooooooO",
".XooooooooooooooooooO   .XoooooooooooooooooooooO   .XooooooooooooooooooO",
".XooooooooooooooooooO   .XoooooooooooooooooooooO   .XooooooooooooooooooO",
".XooooooooooooooooooO   .XoooooooooooooooooooooO   .XooooooooooooooooooO",
".XooooooooooooooooooO   .XoooooooooooooooooooooO   .XooooooooooooooooooO",
".XooooooooooooooooooO   .XoooooooooooooooooooooO   .XooooooooooooooooooO",
".XooooooooooooooooooO   .XoooooooooooooooooooooO   .XooooooooooooooooooO",
".XooooooooooooooooooO   .XoooooooooooooooooooooO   .XooooooooooooooooooO",
".XXoooooooooooooooooO   .XXooooooooooooooooooooO   .XXoooooooooooooooooO",
"..XXXXXXXXXXXXXXXXXXX   ..XXXXXXXXXXXXXXXXXXXXXX   ..XXXXXXXXXXXXXXXXXXX",
".....................   ........................   ....................."
};
